# WaveFront *.obj file (generated by Autodesk ATF)

mtllib porte carte v3.mtl

g Corps2

v 8.750000 5.250000 0.550000
v 8.750000 5.250000 0.600000
v 8.750000 5.750000 0.600000
v 8.750000 5.750000 0.550000
v 8.750000 0.250000 0.600000
v 8.750000 0.250000 0.550000
v 8.750000 -0.250000 0.550000
v 8.750000 -0.250000 0.600000
v 8.700000 5.700000 0.550000
v 8.700000 -0.200000 0.550000
v -0.200000 -0.200000 0.550000
v -0.200000 5.700000 0.550000
v -0.250000 5.750000 0.550000
v -0.250000 -0.250000 0.550000
v -0.250000 5.750000 0.600000
v -0.250000 5.250000 0.600000
v -0.250000 0.250000 0.600000
v -0.250000 -0.250000 0.600000
v -0.300000 5.250000 0.600000
v -0.300000 0.250000 0.600000
v -0.200000 -0.200000 0.000000
v -0.200000 5.700000 0.000000
v 8.700000 -0.200000 0.050000
v 9.250000 -0.200000 0.050000
v 9.250000 -0.200000 0.000000
v -0.300000 5.250000 0.650000
v 9.250000 5.250000 0.650000
v 9.250000 5.750000 0.650000
v -0.300000 5.750000 0.650000
v 9.250000 0.250000 0.650000
v -0.300000 0.250000 0.650000
v -0.300000 -0.300000 0.650000
v 9.250000 -0.300000 0.650000
v -0.300000 5.750000 -0.050000
v -0.300000 -0.300000 -0.050000
v 9.250000 -0.300000 -0.050000
v 8.700000 5.700000 0.050000
v 8.750000 0.250000 0.050000
v 8.750000 5.250000 0.050000
v 8.750000 5.250000 0.000000
v 8.750000 0.250000 0.000000
v 8.750000 0.250000 -0.050000
v 8.750000 5.250000 -0.050000
v 9.250000 5.250000 0.050000
v 9.250000 5.250000 -0.050000
v 9.250000 5.250000 0.000000
v 9.250000 5.700000 0.000000
v 9.250000 0.250000 0.000000
v 9.250000 5.700000 0.050000
v 9.250000 0.250000 0.050000
v 9.250000 5.750000 -0.050000
v 9.250000 0.250000 -0.050000
vt -0.000000 0.500000 0.000000
vt -0.050000 0.500000 0.000000
vt -0.000000 0.000000 0.000000
vt -0.050000 0.000000 0.000000
vt -0.050000 5.500000 0.000000
vt -0.000000 5.500000 0.000000
vt -0.050000 6.000000 0.000000
vt -0.000000 6.000000 0.000000
vt -8.950000 5.950000 0.000000
vt -9.000000 5.500000 0.000000
vt -8.950000 0.050000 0.000000
vt -9.000000 0.500000 0.000000
vt -9.000000 0.000000 0.000000
vt -9.000000 6.000000 0.000000
vt -0.050000 5.950000 0.000000
vt 0.000000 6.000000 0.000000
vt 0.000000 0.000000 0.000000
vt -0.050000 0.050000 0.000000
vt 0.000000 0.000000 0.000000
vt -0.000000 0.500000 0.000000
vt -0.050000 0.000000 0.000000
vt -0.000000 5.500000 0.000000
vt -0.050000 6.000000 0.000000
vt -0.000000 6.000000 0.000000
vt -0.025000 -4.500000 0.000000
vt 0.025000 -4.500000 0.000000
vt -0.025000 4.500000 0.000000
vt 0.025000 4.500000 0.000000
vt -4.500000 2.500000 0.000000
vt -4.550000 2.500000 0.000000
vt -4.500000 -2.500000 0.000000
vt -4.550000 -2.500000 0.000000
vt 5.900000 0.550000 0.000000
vt 0.000000 0.550000 0.000000
vt 5.900000 0.000000 0.000000
vt 0.000000 0.000000 0.000000
vt 0.550000 -0.050000 0.000000
vt 0.050000 -0.050000 0.000000
vt 0.550000 -8.950000 0.000000
vt 0.000000 -8.950000 0.000000
vt 0.000000 0.500000 0.000000
vt 0.050000 0.500000 0.000000
vt -4.525000 -0.250000 0.000000
vt 5.025000 -0.250000 0.000000
vt -4.525000 0.250000 0.000000
vt 5.025000 0.250000 0.000000
vt 4.525000 0.250000 0.000000
vt -4.475000 0.250000 0.000000
vt 4.525000 -0.250000 0.000000
vt -4.475000 -0.250000 0.000000
vt 5.025000 0.275000 0.000000
vt -4.525000 0.275000 0.000000
vt 5.025000 -0.275000 0.000000
vt -4.525000 -0.275000 0.000000
vt -4.475000 -0.275000 0.000000
vt 4.525000 -0.275000 0.000000
vt -4.475000 0.225000 0.000000
vt 4.525000 0.225000 0.000000
vt 0.600000 -0.500000 0.000000
vt -0.050000 0.000000 0.000000
vt 0.600000 -5.500000 0.000000
vt -0.050000 -6.050000 0.000000
vt 0.650000 -6.050000 0.000000
vt 0.650000 -0.500000 0.000000
vt 0.650000 0.000000 0.000000
vt 0.650000 -5.500000 0.000000
vt 0.050000 9.500000 0.000000
vt -0.650000 9.500000 0.000000
vt 0.050000 -0.050000 0.000000
vt -0.650000 -0.050000 0.000000
vt 5.900000 0.550000 0.000000
vt -0.000000 0.550000 0.000000
vt 5.900000 0.050000 0.000000
vt -0.000000 0.050000 0.000000
vt 5.500000 0.550000 0.000000
vt 0.500000 0.550000 0.000000
vt 5.500000 0.050000 0.000000
vt 0.500000 0.050000 0.000000
vt 5.500000 0.000000 0.000000
vt 0.500000 0.000000 0.000000
vt 5.500000 -0.050000 0.000000
vt 0.500000 -0.050000 0.000000
vt 0.400000 0.000000 0.000000
vt 0.400000 0.500000 0.000000
vt -0.100000 -0.000000 0.000000
vt -0.200000 0.500000 0.000000
vt -0.150000 0.000000 0.000000
vt -0.200000 -9.050000 0.000000
vt -0.150000 -9.000000 0.000000
vt -0.150000 -9.050000 0.000000
vt -0.000000 0.000000 0.000000
vt 0.050000 0.000000 0.000000
vt -0.000000 0.500000 0.000000
vt 0.050000 0.500000 0.000000
vt 0.450000 0.500000 0.000000
vt 0.000000 0.500000 0.000000
vt 0.450000 0.000000 0.000000
vt 0.000000 -8.950000 0.000000
vt 5.900000 -8.950000 0.000000
vt 5.450000 0.000000 0.000000
vt 5.900000 0.500000 0.000000
vt 5.450000 0.500000 0.000000
vt -0.500000 -0.050000 0.000000
vt -0.500000 -8.950000 0.000000
vt -0.000000 -0.050000 0.000000
vt 0.050000 -8.950000 0.000000
vt 0.050000 0.500000 0.000000
vt 0.000000 0.500000 0.000000
vt 0.450000 0.500000 0.000000
vt 0.000000 0.000000 0.000000
vt 0.450000 -0.050000 0.000000
vt -5.000000 0.000000 0.000000
vt -5.450000 -0.050000 0.000000
vt -5.450000 0.500000 0.000000
vt -5.000000 0.500000 0.000000
vt 0.000000 0.500000 0.000000
vt 0.150000 -0.250000 0.000000
vt 0.150000 0.200000 0.000000
vt -0.450000 -0.250000 0.000000
vt -0.450000 0.250000 0.000000
vt 0.250000 0.250000 0.000000
vt 0.200000 0.200000 0.000000
vt 0.250000 -0.250000 0.000000
vt 0.200000 -0.250000 0.000000
vt 0.550000 0.000000 0.000000
vt 0.600000 0.500000 0.000000
vt 0.500000 -0.000000 0.000000
vt -0.000000 0.500000 0.000000
vt 0.000000 0.000000 0.000000
vt 0.600000 -9.050000 0.000000
vt 0.550000 -9.000000 0.000000
vt 0.550000 -9.050000 0.000000
vt 0.000000 0.000000 0.000000
vt 0.050000 0.000000 0.000000
vt 0.000000 0.500000 0.000000
vt 0.050000 0.500000 0.000000
vt 0.250000 0.250000 0.000000
vt 0.200000 -0.200000 0.000000
vt 0.250000 -0.300000 0.000000
vt 0.150000 -0.200000 0.000000
vt -0.450000 -0.300000 0.000000
vt -0.450000 0.250000 0.000000
vt 0.150000 0.250000 0.000000
vt 0.200000 0.250000 0.000000
vt 9.000000 0.600000 0.000000
vt 9.050000 0.650000 0.000000
vt 0.000000 0.600000 0.000000
vt -0.500000 0.650000 0.000000
vt 0.000000 0.550000 0.000000
vt -0.500000 -0.050000 0.000000
vt 9.050000 -0.050000 0.000000
vt 9.000000 0.550000 0.000000
vt -5.000000 3.000000 0.000000
vt -4.500000 2.500000 0.000000
vt 4.550000 3.000000 0.000000
vt -4.500000 -2.500000 0.000000
vt 4.550000 -3.050000 0.000000
vt -5.000000 -3.050000 0.000000
vt -5.000000 -2.500000 0.000000
vt -5.000000 2.500000 0.000000
vn -1.000000 -0.000000 -0.000000
vn -1.000000 -0.000000 -0.000000
vn -1.000000 -0.000000 -0.000000
vn -1.000000 -0.000000 -0.000000
vn -1.000000 -0.000000 -0.000000
vn -1.000000 -0.000000 -0.000000
vn -1.000000 -0.000000 -0.000000
vn -1.000000 -0.000000 -0.000000
vn 0.000000 0.000000 1.000000
vn 0.000000 0.000000 1.000000
vn 0.000000 0.000000 1.000000
vn 0.000000 0.000000 1.000000
vn 0.000000 0.000000 1.000000
vn 0.000000 0.000000 1.000000
vn 0.000000 0.000000 1.000000
vn 0.000000 0.000000 1.000000
vn 0.000000 0.000000 1.000000
vn 0.000000 0.000000 1.000000
vn 1.000000 -0.000000 -0.000000
vn 1.000000 -0.000000 -0.000000
vn 1.000000 -0.000000 -0.000000
vn 1.000000 -0.000000 -0.000000
vn 1.000000 -0.000000 -0.000000
vn 1.000000 -0.000000 -0.000000
vn -0.000000 1.000000 -0.000000
vn -0.000000 1.000000 -0.000000
vn -0.000000 1.000000 -0.000000
vn -0.000000 1.000000 -0.000000
vn 0.000000 0.000000 1.000000
vn 0.000000 0.000000 1.000000
vn 0.000000 0.000000 1.000000
vn 0.000000 0.000000 1.000000
vn 1.000000 0.000000 -0.000000
vn 1.000000 0.000000 -0.000000
vn 1.000000 0.000000 -0.000000
vn 1.000000 0.000000 -0.000000
vn 0.000000 1.000000 0.000000
vn 0.000000 1.000000 0.000000
vn 0.000000 1.000000 0.000000
vn 0.000000 1.000000 0.000000
vn 0.000000 1.000000 0.000000
vn 0.000000 1.000000 0.000000
vn 0.000000 0.000000 1.000000
vn 0.000000 0.000000 1.000000
vn 0.000000 0.000000 1.000000
vn 0.000000 0.000000 1.000000
vn -0.000000 -0.000000 -1.000000
vn -0.000000 -0.000000 -1.000000
vn -0.000000 -0.000000 -1.000000
vn -0.000000 -0.000000 -1.000000
vn 0.000000 0.000000 1.000000
vn 0.000000 0.000000 1.000000
vn 0.000000 0.000000 1.000000
vn 0.000000 0.000000 1.000000
vn -0.000000 -0.000000 -1.000000
vn -0.000000 -0.000000 -1.000000
vn -0.000000 -0.000000 -1.000000
vn -0.000000 -0.000000 -1.000000
vn -1.000000 0.000000 0.000000
vn -1.000000 0.000000 0.000000
vn -1.000000 0.000000 0.000000
vn -1.000000 0.000000 0.000000
vn -1.000000 0.000000 0.000000
vn -1.000000 0.000000 0.000000
vn -1.000000 0.000000 0.000000
vn -1.000000 0.000000 0.000000
vn 0.000000 -1.000000 0.000000
vn 0.000000 -1.000000 0.000000
vn 0.000000 -1.000000 0.000000
vn 0.000000 -1.000000 0.000000
vn -1.000000 0.000000 0.000000
vn -1.000000 0.000000 0.000000
vn -1.000000 0.000000 0.000000
vn -1.000000 0.000000 0.000000
vn 1.000000 0.000000 0.000000
vn 1.000000 0.000000 0.000000
vn 1.000000 0.000000 0.000000
vn 1.000000 0.000000 0.000000
vn 1.000000 0.000000 0.000000
vn 1.000000 0.000000 0.000000
vn 1.000000 0.000000 0.000000
vn 1.000000 0.000000 0.000000
vn 0.000000 -1.000000 0.000000
vn 0.000000 -1.000000 0.000000
vn 0.000000 -1.000000 0.000000
vn 0.000000 -1.000000 0.000000
vn 0.000000 -1.000000 0.000000
vn 0.000000 -1.000000 0.000000
vn 0.000000 -1.000000 0.000000
vn 0.000000 -1.000000 0.000000
vn 0.000000 -1.000000 0.000000
vn 0.000000 -1.000000 0.000000
vn 0.000000 -1.000000 0.000000
vn 0.000000 -1.000000 0.000000
vn -0.000000 0.000000 1.000000
vn -0.000000 0.000000 1.000000
vn -0.000000 0.000000 1.000000
vn -0.000000 0.000000 1.000000
vn -0.000000 0.000000 1.000000
vn -0.000000 0.000000 1.000000
vn -0.000000 0.000000 1.000000
vn -0.000000 0.000000 1.000000
vn 0.000000 -1.000000 0.000000
vn 0.000000 -1.000000 0.000000
vn 0.000000 -1.000000 0.000000
vn 0.000000 -1.000000 0.000000
vn 0.000000 -1.000000 0.000000
vn 0.000000 -1.000000 0.000000
vn 0.000000 0.000000 -1.000000
vn 0.000000 0.000000 -1.000000
vn 0.000000 0.000000 -1.000000
vn 0.000000 0.000000 -1.000000
vn 0.000000 0.000000 -1.000000
vn 0.000000 0.000000 -1.000000
vn 0.000000 0.000000 -1.000000
vn 0.000000 0.000000 -1.000000
vn 1.000000 0.000000 0.000000
vn 1.000000 0.000000 0.000000
vn 1.000000 0.000000 0.000000
vn 1.000000 0.000000 0.000000
vn 1.000000 0.000000 0.000000
vn 1.000000 0.000000 0.000000
vn 1.000000 0.000000 0.000000
vn 1.000000 0.000000 0.000000
vn 0.000000 1.000000 0.000000
vn 0.000000 1.000000 0.000000
vn 0.000000 1.000000 0.000000
vn 0.000000 1.000000 0.000000
vn 0.000000 1.000000 0.000000
vn 0.000000 1.000000 0.000000
vn 0.000000 1.000000 0.000000
vn 0.000000 1.000000 0.000000
vn 0.000000 1.000000 0.000000
vn 0.000000 1.000000 0.000000
vn 0.000000 1.000000 0.000000
vn 0.000000 1.000000 0.000000
vn 1.000000 0.000000 0.000000
vn 1.000000 0.000000 0.000000
vn 1.000000 0.000000 0.000000
vn 1.000000 0.000000 0.000000
vn 1.000000 0.000000 0.000000
vn 1.000000 0.000000 0.000000
vn 1.000000 0.000000 0.000000
vn 1.000000 0.000000 0.000000
vn 0.000000 1.000000 -0.000000
vn 0.000000 1.000000 -0.000000
vn 0.000000 1.000000 -0.000000
vn 0.000000 1.000000 -0.000000
vn 0.000000 1.000000 -0.000000
vn 0.000000 1.000000 -0.000000
vn 0.000000 1.000000 -0.000000
vn 0.000000 1.000000 -0.000000
vn 0.000000 0.000000 -1.000000
vn 0.000000 0.000000 -1.000000
vn 0.000000 0.000000 -1.000000
vn 0.000000 0.000000 -1.000000
vn 0.000000 0.000000 -1.000000
vn 0.000000 0.000000 -1.000000
vn 0.000000 0.000000 -1.000000
vn 0.000000 0.000000 -1.000000
usemtl Acier_-_Satiné
f 1/1/1 2/2/2 4/3/3
f 4/3/3 2/2/2 3/4/4
f 5/5/5 6/6/6 8/7/7
f 8/7/7 6/6/6 7/8/8
f 10/9/9 6/10/10 9/11/11
f 9/11/11 6/10/10 1/12/12
f 9/11/11 1/12/12 4/13/13
f 6/10/10 10/9/9 7/14/14
f 7/14/14 10/9/9 11/15/15
f 7/14/14 11/15/15 14/16/16
f 14/16/16 11/15/15 13/17/17
f 13/17/17 11/15/15 12/18/18
f 13/17/17 12/18/18 9/11/11
f 4/13/13 13/17/17 9/11/11
f 15/19/19 16/20/20 13/21/21
f 13/21/21 16/20/20 17/22/22
f 13/21/21 17/22/22 14/23/23
f 14/23/23 17/22/22 18/24/24
f 14/25/25 18/26/26 7/27/27
f 7/27/27 18/26/26 8/28/28
f 16/29/29 19/30/30 17/31/31
f 17/31/31 19/30/30 20/32/32
f 12/33/33 11/34/34 22/35/35
f 22/35/35 11/34/34 21/36/36
f 10/37/37 23/38/38 11/39/39
f 11/39/39 23/38/38 21/40/40
f 21/40/40 23/38/38 25/41/41
f 25/41/41 23/38/38 24/42/42
f 26/43/43 27/44/44 29/45/45
f 29/45/45 27/44/44 28/46/46
f 2/47/47 16/48/48 3/49/49
f 3/49/49 16/48/48 15/50/50
f 30/51/51 31/52/52 33/53/53
f 33/53/53 31/52/52 32/54/54
f 17/55/55 5/56/56 18/57/57
f 18/57/57 5/56/56 8/58/58
f 19/59/59 34/60/60 20/61/61
f 20/61/61 34/60/60 35/62/62
f 20/61/61 35/62/62 32/63/63
f 26/64/64 29/65/65 19/59/59
f 19/59/59 29/65/65 34/60/60
f 32/63/63 31/66/66 20/61/61
f 36/67/67 33/68/68 35/69/69
f 35/69/69 33/68/68 32/70/70
f 10/71/71 9/72/72 23/73/73
f 23/73/73 9/72/72 37/74/74
f 1/75/75 6/76/76 39/77/77
f 39/77/77 6/76/76 38/78/78
f 40/79/79 41/80/80 43/81/81
f 43/81/81 41/80/80 42/82/82
f 39/83/83 44/84/84 1/85/85
f 1/85/85 44/84/84 27/86/86
f 1/85/85 27/86/86 2/87/87
f 2/87/87 27/86/86 26/88/88
f 2/87/87 26/88/88 16/89/89
f 16/89/89 26/88/88 19/90/90
f 40/91/91 43/92/92 46/93/93
f 46/93/93 43/92/92 45/94/94
f 46/95/95 47/96/96 40/97/97
f 40/97/97 47/96/96 22/98/98
f 40/97/97 22/98/98 21/99/99
f 40/97/97 21/99/99 41/100/100
f 41/100/100 21/99/99 25/101/101
f 41/100/100 25/101/101 48/102/102
f 9/103/103 12/104/104 37/105/105
f 37/105/105 12/104/104 22/106/106
f 37/105/105 22/106/106 47/107/107
f 47/107/107 49/108/108 37/105/105
f 49/109/109 39/110/110 37/111/111
f 37/111/111 39/110/110 38/112/112
f 37/111/111 38/112/112 23/113/113
f 23/113/113 38/112/112 24/114/114
f 24/114/114 38/112/112 50/115/115
f 49/109/109 44/116/116 39/110/110
f 44/117/117 49/118/118 27/119/119
f 27/119/119 49/118/118 28/120/120
f 28/120/120 49/118/118 51/121/121
f 51/121/121 49/118/118 47/122/122
f 51/121/121 47/122/122 45/123/123
f 45/123/123 47/122/122 46/124/124
f 5/125/125 30/126/126 6/127/127
f 6/127/127 30/126/126 50/128/128
f 6/127/127 50/128/128 38/129/129
f 30/126/126 5/125/125 31/130/130
f 31/130/130 5/125/125 17/131/131
f 31/130/130 17/131/131 20/132/132
f 42/133/133 41/134/134 52/135/135
f 52/135/135 41/134/134 48/136/136
f 52/137/137 25/138/138 36/139/139
f 36/139/139 25/138/138 24/140/140
f 36/139/139 24/140/140 33/141/141
f 33/141/141 24/140/140 30/142/142
f 30/142/142 24/140/140 50/143/143
f 52/137/137 48/144/144 25/138/138
f 15/145/145 29/146/146 3/147/147
f 3/147/147 29/146/146 28/148/148
f 3/147/147 28/148/148 4/149/149
f 4/149/149 28/148/148 51/150/150
f 4/149/149 51/150/150 34/151/151
f 15/145/145 13/152/152 29/146/146
f 29/146/146 13/152/152 34/151/151
f 34/151/151 13/152/152 4/149/149
f 51/153/153 43/154/154 34/155/155
f 34/155/155 43/154/154 42/156/156
f 34/155/155 42/156/156 35/157/157
f 35/157/157 42/156/156 36/158/158
f 36/158/158 42/156/156 52/159/159
f 51/153/153 45/160/160 43/154/154
# 52 vertices
# 160 texture params
# 160 normals
# 108 facets

# 1 groups
